<?xml version="1.0" standalone="no"?>
<!DOCTYPE svg PUBLIC "-//W3C//DTD SVG 20010904//EN"
 "http://www.w3.org/TR/2001/REC-SVG-20010904/DTD/svg10.dtd">
<svg version="1.0" xmlns="http://www.w3.org/2000/svg"
 width="900.000000pt" height="900.000000pt" viewBox="0 0 900.000000 900.000000"
 preserveAspectRatio="xMidYMid meet">

<g transform="translate(0.000000,900.000000) scale(0.100000,-0.100000)"
fill="#000000" stroke="none">
<path d="M0 4500 l0 -4500 4500 0 4500 0 0 4500 0 4500 -4500 0 -4500 0 0
-4500z m5285 2648 c-3 -13 -11 -52 -19 -88 -8 -36 -32 -148 -55 -250 -22 -102
-62 -288 -90 -415 -27 -126 -59 -270 -70 -318 -12 -48 -21 -92 -21 -97 0 -6
175 -10 468 -10 258 0 471 -2 474 -5 5 -5 -2 -39 -97 -471 -30 -138 -55 -261
-55 -272 0 -11 -7 -22 -15 -26 -8 -3 -223 -5 -477 -5 -361 -1 -464 -4 -469
-13 -4 -7 -12 -40 -19 -73 -6 -33 -27 -127 -46 -210 -18 -82 -59 -265 -89
-405 -31 -140 -71 -325 -90 -410 -149 -664 -177 -809 -190 -970 -15 -198 61
-347 213 -418 55 -26 64 -27 227 -27 182 0 276 14 408 60 42 14 67 19 67 12 0
-13 -46 -225 -95 -437 -18 -80 -44 -193 -56 -252 -12 -59 -25 -111 -28 -116
-7 -10 -307 -77 -416 -92 -165 -23 -403 -9 -605 36 -235 53 -375 126 -520 273
-75 76 -105 115 -142 186 -98 189 -136 417 -118 702 12 183 22 255 70 508 36
187 57 284 145 675 19 85 64 290 100 455 61 279 100 455 112 498 4 16 -19 17
-376 17 -209 0 -382 3 -384 8 -2 4 18 108 45 232 27 124 64 295 82 380 l33
155 386 3 386 2 11 58 c7 31 25 116 41 187 16 72 47 213 69 315 22 102 45 205
52 229 l13 44 185 59 c102 33 318 102 480 155 162 52 331 107 375 123 99 36
107 36 100 8z"/>
</g>
</svg>
